<svg width="362" height="80" version="1.1" xmlns="http://www.w3.org/2000/svg" desc="Created with imagetracer.js version 1.2.6" ><path fill="rgb(0,0,0)" stroke="rgb(0,0,0)" stroke-width="1" opacity="0" d="M 0 0 L 361.5 0 L 362 0.5 L 362 80 L 226 79.5 L 231 76.5 L 232 69.5 L 227.5 64 Q 218.3 62.3 216.5 68 L 203.5 68 L 201 67 L 188 49.5 L 188 35.5 L 186 30.5 L 187 30.5 L 200 58.5 L 203.5 62 Q 210.2 64.3 220.5 63 L 223 60.5 L 223 56.5 L 227 50.5 L 244.5 10 L 247.5 16 L 255.5 17 L 259 15 Q 260.6 12.9 260 7.5 L 256.5 3 L 250.5 2 L 244.5 7 L 232 7 L 215.5 44 L 199 6 L 173.5 6 Q 170.8 1.8 164.5 1 L 159 4.5 L 158 12.5 L 159 15 Q 162.1 14.3 161.5 17 L 169.5 17 L 173.5 13 L 185.5 13 L 189 16.5 L 201 42.5 L 199 41.5 L 191 23 L 184.5 22 Q 181.8 23.3 184 24.5 L 183.5 26 L 179.5 22 L 174.5 20 L 161.5 20 L 155.5 23 L 155 16.5 L 156 14.5 L 155 13.5 L 155 6 L 142.5 6 L 142 6.5 L 142 54.5 L 143 58.5 L 142 60.5 L 143 63 L 155 63 L 155 40.5 L 156 35 L 158 35 Q 156.9 32.3 159.5 33 Q 161.5 30 167.5 31 L 173 34.5 L 174 36.5 L 175 63 L 188.5 63 L 189 64.5 L 197.5 75 L 216.5 75 L 222 79.5 L 0 80 L 0 0 Z M 264 6 L 264 63 L 275 63 L 277 61 L 286 64 L 296 63 L 304 58 L 309 48 L 309 35 L 303 24 L 296 20 L 282 20 L 278 22 L 276 23 L 276 6 L 264 6 Z M 7 7 L 7 18 L 9 19 L 20 19 L 21 18 L 23 19 L 25 20 L 25 62 L 27 63 L 38 63 L 39 62 L 39 19 L 43 18 L 45 19 L 56 19 L 57 17 L 56 15 Q 58 13 57 9 L 56 7 L 7 7 Z M 67 20 L 62 22 Q 54 27 51 36 Q 49 49 55 55 Q 54 57 57 56 L 57 58 L 64 62 L 73 64 Q 87 64 93 56 L 92 53 L 85 48 L 78 53 Q 71 54 68 51 L 64 47 L 66 47 L 95 47 L 96 46 L 96 37 L 92 28 L 82 20 L 67 20 Z M 113 20 L 106 24 Q 100 28 98 36 L 98 48 L 102 56 L 107 60 L 119 64 Q 129 64 135 60 L 139 56 L 139 53 L 132 47 L 122 53 L 113 50 L 110 43 L 112 36 L 118 31 Q 128 29 131 36 L 138 32 Q 140 31 139 28 Q 135 22 129 20 L 113 20 Z M 246 20 L 246 62 L 248 63 L 258 63 L 259 62 L 259 22 L 258 20 L 246 20 Z M 327 20 L 319 24 Q 313 28 311 36 L 311 48 L 315 56 L 324 62 L 332 64 Q 344 64 351 58 L 352 58 L 352 53 L 347 49 L 338 53 Q 331 54 328 51 L 324 47 L 325 45 L 325 47 L 346 47 L 347 46 L 349 47 Q 354 48 356 46 L 356 36 L 352 28 Q 348 22 342 20 L 327 20 Z " /><path fill="rgb(0,0,0)" stroke="rgb(0,0,0)" stroke-width="1" opacity="0" d="M 165.5 7 Q 167.8 6.3 167 8.5 Q 169.8 10.3 165.5 12 L 164 8.5 L 165.5 7 Z " /><path fill="rgb(0,0,0)" stroke="rgb(0,0,0)" stroke-width="1" opacity="0" d="M 184.5 27 L 185.5 29 L 184.5 27 Z " /><path fill="rgb(0,0,0)" stroke="rgb(0,0,0)" stroke-width="1" opacity="0" d="M 72.5 30 Q 80.6 29.9 83 35.5 L 82.5 37 L 66.5 37 L 63.5 44 L 63 39.5 L 69.5 31 L 72.5 30 Z " /><path fill="rgb(0,0,0)" stroke="rgb(0,0,0)" stroke-width="1" opacity="0" d="M 332.5 30 Q 339 30.3 342 33 L 343 37 L 325.5 37 L 324.5 38 L 324 36.5 L 326 33 L 332.5 30 Z " /><path fill="rgb(0,0,0)" stroke="rgb(0,0,0)" stroke-width="1" opacity="0" d="M 283.5 31 Q 291.1 30.1 294 33 L 297 37.5 L 297 45.5 L 291.5 52 L 283.5 53 L 277 47.5 Q 274.7 44.3 276 37.5 L 279.5 33 L 283.5 31 Z M 286 33 L 284 36 Q 280 35 279 38 L 280 42 L 279 44 Q 278 47 281 48 Q 285 47 284 50 L 289 50 L 289 48 Q 293 49 294 47 L 294 38 L 293 36 Q 288 37 289 35 L 286 33 Z " /><path fill="rgb(0,0,0)" stroke="rgb(0,0,0)" stroke-width="1" opacity="0" d="M 285 41 Q 289.5 39.5 288 44 L 285 42.5 L 285 41 Z " /><path fill="rgb(0,0,0)" stroke="rgb(0,0,0)" stroke-width="1" opacity="0" d="M 202.5 47 L 206 53.5 L 205 53.5 L 202.5 47 Z " /><path fill="rgb(0,0,0)" stroke="rgb(0,0,0)" stroke-width="1" opacity="0" d="M 223.5 70 Q 227.3 68.8 226 72.5 L 223.5 74 L 222 71.5 L 223.5 70 Z " /><path fill="rgb(78,80,158)" stroke="rgb(78,80,158)" stroke-width="1" opacity="0.9686274509803922" d="M 164.5 2 Q 170.7 1.3 172 5.5 L 172.5 7 L 197.5 7 L 201 12.5 L 207 30.5 L 206 30.5 L 204.5 28 L 203 28.5 L 200.5 25 L 200 28 L 197.5 29 Q 194.3 27.8 195 24 Q 192 25.3 193 21.5 L 188.5 14 Q 186.8 11.2 181.5 12 L 179.5 12 L 173.5 12 L 168.5 16 L 162.5 16 L 158 9.5 L 162.5 3 L 164.5 2 Z M 165 7 Q 162 8 163 12 L 167 13 L 169 10 Q 168 6 165 7 Z " /><path fill="rgb(78,80,158)" stroke="rgb(78,80,158)" stroke-width="1" opacity="0.9686274509803922" d="M 250.5 3 L 257 4 L 259 7.5 L 259 12.5 Q 257.5 17.5 249.5 16 L 246 12.5 Q 246.8 8.8 244.5 8 L 234.5 27 L 231.5 25 L 231 26.5 L 231 28.5 L 229.5 31 L 230 29.5 L 231 27.5 L 229 27 L 228 31 Q 225.3 32.1 226 29.5 L 225 29.5 L 224.5 31 L 224 29.5 L 233 7 L 244.5 7 L 245.5 8 L 248.5 4 L 250.5 3 Z " /><path fill="rgb(78,80,158)" stroke="rgb(78,80,158)" stroke-width="1" opacity="0.9686274509803922" d="M 147.5 6 L 149.5 6 L 154 7 L 154 22.5 L 153 23.5 L 155.5 27 L 159.5 22 L 161.5 21 L 174.5 21 L 178 22 Q 176.9 24.7 179.5 24 L 184 30.5 L 182 30.5 L 181.5 32 L 180 29 L 173.5 27 L 167.5 30 L 166.5 29 L 158.5 29 L 156 30 L 155.5 28 L 152.5 30 L 150 29.5 Q 151.3 25.8 147.5 27 L 145.5 28 Q 141.3 20.1 143 7 L 147.5 6 Z M 157 27 L 157 28 L 159 28 L 157 27 Z " /><path fill="rgb(78,80,158)" stroke="rgb(78,80,158)" stroke-width="1" opacity="0.9686274509803922" d="M 267.5 6 L 275 7 L 275 24.5 L 276.5 25 Q 280.8 18.8 293.5 21 Q 300.7 22.8 304 28.5 L 303 31 L 299.5 30 L 297.5 31 L 292.5 27 L 289 27 Q 290.1 29.7 287.5 29 L 285.5 28 L 282.5 29 L 280.5 29 L 279 29.5 Q 281.3 30.8 278.5 32 L 277 31.5 L 277.5 30 Q 274.9 30.7 276 28 L 274 28 Q 275.1 30.7 272.5 30 L 271 30.5 L 269.5 28 L 265.5 30 L 265 20.5 L 264 19.5 L 264 8.5 L 267.5 6 Z " /><path fill="rgb(78,80,158)" stroke="rgb(78,80,158)" stroke-width="1" opacity="0.9686274509803922" d="M 10.5 7 L 54.5 7 L 56 8.5 L 55 17 L 39.5 17 L 38 18.5 L 37 28 L 31.5 26 L 27 26 L 27 18.5 L 25.5 17 L 9.5 17 L 8 15.5 L 8 8.5 L 9.5 8 L 10.5 7 Z " /><path fill="rgb(78,80,158)" stroke="rgb(78,80,158)" stroke-width="1" opacity="0.9686274509803922" d="M 73.5 20 L 76.5 21 L 78.5 20 L 90 27.5 L 91 30.5 L 88.5 29 L 86.5 30 L 86 27 L 82 27.5 L 82.5 29 L 79.5 28 L 77.5 29 L 77.5 27 L 73.5 28 L 71.5 28 L 68 28.5 L 68.5 30 L 65.5 32 Q 64.5 29 59.5 30 L 58 30.5 L 57 28.5 L 64.5 22 L 73.5 20 Z M 70 26 L 70 27 L 72 27 L 70 26 Z " /><path fill="rgb(78,80,158)" stroke="rgb(78,80,158)" stroke-width="1" opacity="0.9686274509803922" d="M 116.5 20 L 119.5 21 Q 120.8 18.7 125.5 20 Q 127.3 23.2 132.5 23 L 137 27.5 L 136 30 L 133.5 31 L 130.5 30 L 129 30.5 L 129.5 32 Q 126.3 27.7 117.5 29 L 115 29.5 L 113.5 32 L 110.5 30 L 108.5 31 L 107 30.5 L 108 32.5 L 106 31.5 L 104 27.5 Q 108.8 22.3 116.5 20 Z M 122 27 L 122 28 L 124 28 L 122 27 Z " /><path fill="rgb(78,80,158)" stroke="rgb(78,80,158)" stroke-width="1" opacity="0.9686274509803922" d="M 331.5 20 L 342.5 22 L 350 27.5 L 352 31.5 L 349.5 32 Q 347.3 32.8 348 30.5 L 349 28.5 L 347 29.5 L 346.5 31 Q 345.3 28 341 29 L 340.5 27 L 336.5 28 L 334.5 28 L 331 27 Q 332.1 29.7 329.5 29 Q 328 25.5 326.5 28 L 323.5 27 L 325 29.5 L 326 31.5 L 323.5 34 L 319.5 30 L 318.5 31 L 315 30.5 L 319.5 25 L 331.5 20 Z " /><path fill="rgb(78,80,158)" stroke="rgb(78,80,158)" stroke-width="1" opacity="0.9686274509803922" d="M 249.5 21 L 254.5 22 L 257 21 L 256.5 32 L 254.5 28 L 254 30 L 251.5 31 L 249 30 L 247 26.5 L 247 22 L 249.5 21 Z " /><path fill="rgb(78,80,158)" stroke="rgb(78,80,158)" stroke-width="1" opacity="0.9686274509803922" d="M 187.5 23 L 191 25.5 L 193 34 L 188 30.5 L 185 24 L 187.5 23 Z " /><path fill="rgb(78,80,158)" stroke="rgb(78,80,158)" stroke-width="1" opacity="0.9686274509803922" d="M 83.5 30 Q 85.8 29.3 85 31.5 L 85.5 33 L 83.5 30 Z " /><path fill="rgb(65,66,134)" stroke="rgb(65,66,134)" stroke-width="1" opacity="0.9098039215686274" d="M 161.5 3 L 160.5 5 L 161.5 3 Z " /><path fill="rgb(65,66,134)" stroke="rgb(65,66,134)" stroke-width="1" opacity="0.9098039215686274" d="M 257.5 5 L 258.5 7 L 257.5 5 Z " /><path fill="rgb(65,66,134)" stroke="rgb(65,66,134)" stroke-width="1" opacity="0.9098039215686274" d="M 144.5 6 L 147 6.5 L 144.5 7 L 144.5 6 Z " /><path fill="rgb(65,66,134)" stroke="rgb(65,66,134)" stroke-width="1" opacity="0.9098039215686274" d="M 151.5 6 L 155 7.5 L 154.5 22 L 154 7 Q 150.7 7.8 151.5 6 Z " /><path fill="rgb(65,66,134)" stroke="rgb(65,66,134)" stroke-width="1" opacity="0.9098039215686274" d="M 265.5 6 L 267 6.5 L 264.5 8 L 265.5 6 Z " /><path fill="rgb(65,66,134)" stroke="rgb(65,66,134)" stroke-width="1" opacity="0.9098039215686274" d="M 272.5 6 L 276 7.5 L 275.5 16 L 275 7 Q 271.7 7.8 272.5 6 Z " /><path fill="rgb(65,66,134)" stroke="rgb(65,66,134)" stroke-width="1" opacity="0.9098039215686274" d="M 244.5 8 L 246 10.5 L 245 10.5 L 244.5 8 Z " /><path fill="rgb(65,66,134)" stroke="rgb(65,66,134)" stroke-width="1" opacity="0.9098039215686274" d="M 168.5 9 L 169 10.5 Q 168.5 13.5 164.5 13 L 163.5 11 L 166.5 12 L 168.5 9 Z " /><path fill="rgb(65,66,134)" stroke="rgb(65,66,134)" stroke-width="1" opacity="0.9098039215686274" d="M 173.5 12 L 180 12.5 L 173.5 13 L 173.5 12 Z " /><path fill="rgb(65,66,134)" stroke="rgb(65,66,134)" stroke-width="1" opacity="0.9098039215686274" d="M 181.5 12 L 186 12.5 L 181.5 13 L 181.5 12 Z " /><path fill="rgb(65,66,134)" stroke="rgb(65,66,134)" stroke-width="1" opacity="0.9098039215686274" d="M 55.5 13 L 56 16.5 L 54.5 18 L 39.5 18 L 39.5 17 L 54.5 17 L 55.5 13 Z " /><path fill="rgb(65,66,134)" stroke="rgb(65,66,134)" stroke-width="1" opacity="0.9098039215686274" d="M 159.5 13 L 161.5 16 L 159.5 13 Z " /><path fill="rgb(65,66,134)" stroke="rgb(65,66,134)" stroke-width="1" opacity="0.9098039215686274" d="M 171.5 13 L 169.5 16 L 171.5 13 Z " /><path fill="rgb(65,66,134)" stroke="rgb(65,66,134)" stroke-width="1" opacity="0.9098039215686274" d="M 188.5 14 L 191 17.5 L 189 16.5 L 188.5 14 Z " /><path fill="rgb(65,66,134)" stroke="rgb(65,66,134)" stroke-width="1" opacity="0.9098039215686274" d="M 8.5 16 L 9.5 17 L 25.5 17 L 27 18.5 L 27 26 L 31.5 26 L 37 28 L 37.5 20 L 38 36.5 L 35.5 35 L 29.5 36 L 27 35 L 26.5 37 L 26 18 L 8.5 18 L 8.5 16 Z " /><path fill="rgb(65,66,134)" stroke="rgb(65,66,134)" stroke-width="1" opacity="0.9098039215686274" d="M 163.5 16 L 168 16.5 L 163.5 17 L 163.5 16 Z " /><path fill="rgb(65,66,134)" stroke="rgb(65,66,134)" stroke-width="1" opacity="0.9098039215686274" d="M 251.5 16 L 254 16.5 L 251.5 17 L 251.5 16 Z " /><path fill="rgb(65,66,134)" stroke="rgb(65,66,134)" stroke-width="1" opacity="0.9098039215686274" d="M 275.5 19 L 276.5 24 L 279.5 22 L 278.5 24 L 275 25 L 275.5 19 Z " /><path fill="rgb(65,66,134)" stroke="rgb(65,66,134)" stroke-width="1" opacity="0.9098039215686274" d="M 68.5 20 L 73 20.5 L 68.5 21 L 68.5 20 Z " /><path fill="rgb(65,66,134)" stroke="rgb(65,66,134)" stroke-width="1" opacity="0.9098039215686274" d="M 74.5 20 L 77 20.5 L 74.5 21 L 74.5 20 Z " /><path fill="rgb(65,66,134)" stroke="rgb(65,66,134)" stroke-width="1" opacity="0.9098039215686274" d="M 163.5 20 L 173 20.5 L 163.5 21 L 163.5 20 Z " /><path fill="rgb(65,66,134)" stroke="rgb(65,66,134)" stroke-width="1" opacity="0.9098039215686274" d="M 191.5 20 L 193 22.5 L 192 22.5 L 191.5 20 Z " /><path fill="rgb(65,66,134)" stroke="rgb(65,66,134)" stroke-width="1" opacity="0.9098039215686274" d="M 264.5 20 L 265.5 30 L 269.5 28 L 271.5 31 L 274 30 Q 273 27 276 28 Q 274.9 30.7 277.5 30 L 277.5 32 L 280 30.5 L 279.5 29 L 281.5 28 L 284.5 29 L 284.5 27 L 289 29 Q 287.7 25.7 292.5 27 L 298.5 31 L 300.5 30 L 303 31 L 304 28.5 L 299.5 23 L 307 32.5 L 306.5 34 L 308 34 L 308 38 L 303.5 36 L 301 37.5 L 300.5 35 L 300 37 L 296 35.5 L 296.5 34 L 290.5 30 L 282.5 30 L 277 34.5 L 275.5 37 L 275.5 35 L 271.5 34 L 268.5 38 L 266.5 38 Q 264.3 37.3 265 39.5 L 264 39.5 L 264.5 20 Z " /><path fill="rgb(65,66,134)" stroke="rgb(65,66,134)" stroke-width="1" opacity="0.9098039215686274" d="M 283.5 20 L 293 20.5 L 283.5 21 L 283.5 20 Z " /><path fill="rgb(65,66,134)" stroke="rgb(65,66,134)" stroke-width="1" opacity="0.9098039215686274" d="M 328.5 20 L 331 20.5 L 328.5 21 L 328.5 20 Z " /><path fill="rgb(65,66,134)" stroke="rgb(65,66,134)" stroke-width="1" opacity="0.9098039215686274" d="M 332.5 20 L 339 20.5 L 332.5 21 L 332.5 20 Z " /><path fill="rgb(65,66,134)" stroke="rgb(65,66,134)" stroke-width="1" opacity="0.9098039215686274" d="M 81.5 21 L 84 22.5 L 82.5 23 L 81.5 21 Z " /><path fill="rgb(65,66,134)" stroke="rgb(65,66,134)" stroke-width="1" opacity="0.9098039215686274" d="M 143.5 21 Q 142.6 26.4 145.5 28 L 150 27 L 150.5 30 L 152.5 30 L 156 27.5 L 153 23.5 L 154.5 24 L 158.5 22 L 156 25.5 Q 155.2 28.1 158.5 27 L 158.5 28 Q 154.8 27 156 30 Q 159 28 166.5 29 L 166.5 30 L 162.5 30 L 155 34.5 L 155.5 36 Q 153.3 36.8 154 34.5 L 152 35.5 L 151.5 37 L 147.5 37 Q 144.2 38.1 145 35.5 L 144 35.5 L 143.5 38 L 143.5 21 Z " /><path fill="rgb(65,66,134)" stroke="rgb(65,66,134)" stroke-width="1" opacity="0.9098039215686274" d="M 238.5 21 L 238 22.5 L 230.5 39 L 229.5 35 L 227.5 36 L 226 35.5 Q 226.7 38.1 224 37 L 223.5 34 L 222.5 36 Q 219.8 34.8 222 33.5 L 225.5 24 L 226 25.5 L 225 28.5 L 226 31 Q 228.7 32.1 228 29.5 L 229 27 Q 231.7 28.1 231 25.5 L 232.5 26 L 234.5 27 L 238.5 21 Z " /><path fill="rgb(65,66,134)" stroke="rgb(65,66,134)" stroke-width="1" opacity="0.9098039215686274" d="M 251.5 21 L 255 21.5 L 251.5 22 L 251.5 21 Z " /><path fill="rgb(65,66,134)" stroke="rgb(65,66,134)" stroke-width="1" opacity="0.9098039215686274" d="M 257.5 21 L 258 39.5 L 257 39.5 L 254.5 36 L 250.5 37 L 248.5 37 L 247 36.5 L 247 27.5 L 249 28.5 Q 248.3 30.8 250.5 30 L 252.5 30 Q 254.8 30.8 254 28.5 L 256 29.5 L 256.5 32 L 257.5 21 Z " /><path fill="rgb(65,66,134)" stroke="rgb(65,66,134)" stroke-width="1" opacity="0.9098039215686274" d="M 63.5 22 L 62.5 24 L 57 28.5 L 58.5 31 L 63.5 30 Q 65.2 33.8 67 30.5 L 65 29.5 L 66.5 29 L 68.5 30 L 68.5 28 L 72 27.5 L 69 26.5 L 71.5 26 L 74.5 28 L 77.5 27 L 77.5 29 L 80.5 28 L 82.5 29 L 82.5 27 Q 87.3 25.3 86 29.5 L 87.5 29 L 90.5 31 L 91 29.5 L 90.5 28 L 93 30.5 L 95 36.5 L 95 42.5 L 94 42.5 Q 95.9 37.1 92.5 38 L 88.5 36 L 86.5 36 L 83 39.5 L 82.5 41 L 81 38.5 L 84 37.5 L 78.5 30 L 69.5 30 L 64 34.5 L 62.5 37 L 61.5 35 L 60.5 38 L 58.5 34 L 58 36 L 55.5 35 L 54 35.5 L 55 29.5 L 61.5 23 L 63.5 22 Z M 84 30 L 85 32 Q 86 29 84 30 Z " /><path fill="rgb(65,66,134)" stroke="rgb(65,66,134)" stroke-width="1" opacity="0.9098039215686274" d="M 343.5 22 L 351 27.5 L 355 36.5 L 355 40.5 L 354 40.5 Q 356.1 34.6 351.5 36 L 349 37.5 L 348.5 36 L 348 38 L 343.5 41 L 341 40 Q 340 37 343 38 L 343.5 40 L 344 35.5 L 341.5 32 Q 338.3 28.2 329.5 30 L 325 33.5 L 324 37 Q 319.8 38 318.5 35 L 318 38 L 315.5 37 L 313 37.5 L 312.5 39 L 312 35.5 L 314 31 L 319 30.5 L 318.5 29 L 323.5 34 L 326 31.5 L 323 27.5 L 324.5 27 L 326.5 28 Q 328 25.5 329.5 29 L 332.5 27 L 334.5 28 L 336.5 28 L 340.5 27 L 341 29 Q 345.3 28 346.5 31 L 348.5 28 L 349 29.5 L 348 32 L 350.5 31 L 352 31.5 L 347.5 25 Q 342.8 24.2 343.5 22 Z " /><path fill="rgb(65,66,134)" stroke="rgb(65,66,134)" stroke-width="1" opacity="0.9098039215686274" d="M 85.5 23 L 86.5 25 L 85.5 23 Z " /><path fill="rgb(65,66,134)" stroke="rgb(65,66,134)" stroke-width="1" opacity="0.9098039215686274" d="M 108.5 23 L 107.5 25 L 108.5 23 Z " /><path fill="rgb(65,66,134)" stroke="rgb(65,66,134)" stroke-width="1" opacity="0.9098039215686274" d="M 184 23 L 187 23.5 L 184.5 25 L 184 23 Z " /><path fill="rgb(65,66,134)" stroke="rgb(65,66,134)" stroke-width="1" opacity="0.9098039215686274" d="M 188.5 23 L 191 24.5 L 189.5 24 L 188.5 23 Z " /><path fill="rgb(65,66,134)" stroke="rgb(65,66,134)" stroke-width="1" opacity="0.9098039215686274" d="M 321.5 23 L 320.5 25 L 321.5 23 Z " /><path fill="rgb(65,66,134)" stroke="rgb(65,66,134)" stroke-width="1" opacity="0.9098039215686274" d="M 134.5 24 L 138 28.5 L 134.5 33 L 130.5 35 Q 128.1 28.4 117.5 30 L 111 35.5 Q 111.8 37.8 109.5 37 L 107.5 36 L 104.5 37 L 101.5 38 L 99 37.5 L 99.5 35 L 101 35.5 L 100 32.5 L 103.5 28 Q 105.8 27.3 105 29.5 L 106.5 32 L 107.5 30 L 109.5 31 L 112 30 Q 110.9 32.7 113.5 32 L 116.5 28 Q 118.2 30.8 124.5 29 L 128.5 31 L 130.5 30 L 134.5 30 Q 136.8 30.8 136 28.5 L 137 27.5 L 134.5 24 Z " /><path fill="rgb(65,66,134)" stroke="rgb(65,66,134)" stroke-width="1" opacity="0.9098039215686274" d="M 180.5 24 Q 186.6 28.4 187 38.5 L 186 38.5 Q 186.8 36.3 184.5 37 L 183 37.5 Q 183.8 34.9 180.5 36 L 177.5 40 L 177 38.5 L 177.5 37 Q 174.5 36.1 176 40.5 L 175 40.5 Q 175.9 33.6 171.5 32 L 168 30.5 L 170 29.5 L 168 28.5 L 169.5 28 L 171.5 29 L 174.5 27 L 180 29 L 181.5 32 L 182 30.5 L 180 26.5 L 180.5 24 Z M 182 26 L 182 30 L 184 31 L 182 26 Z " /><path fill="rgb(65,66,134)" stroke="rgb(65,66,134)" stroke-width="1" opacity="0.9098039215686274" d="M 193.5 24 Q 196.1 23.2 195 26.5 Q 196.7 30.7 198.5 28 Q 201.1 28.8 200 25.5 L 203 27.5 L 203.5 29 L 206 28.5 L 205 24.5 L 206 24.5 Q 210.3 29.7 211 38.5 L 209 37.5 L 208.5 36 L 203 36 Q 204.1 38.7 201.5 38 Q 200.3 40.3 199 37.5 L 200 35.5 L 198 35 L 193.5 24 Z " /><path fill="rgb(65,66,134)" stroke="rgb(65,66,134)" stroke-width="1" opacity="0.9098039215686274" d="M 105.5 25 L 104.5 27 L 105.5 25 Z " /><path fill="rgb(65,66,134)" stroke="rgb(65,66,134)" stroke-width="1" opacity="0.9098039215686274" d="M 185.5 26 L 188 29.5 L 186 28.5 L 185.5 26 Z " /><path fill="rgb(65,66,134)" stroke="rgb(65,66,134)" stroke-width="1" opacity="0.9098039215686274" d="M 121.5 27 L 124 27.5 L 121.5 28 L 121.5 27 Z " /><path fill="rgb(65,66,134)" stroke="rgb(65,66,134)" stroke-width="1" opacity="0.9098039215686274" d="M 191.5 27 L 193 29.5 L 192 29.5 L 191.5 27 Z " /><path fill="rgb(65,66,134)" stroke="rgb(65,66,134)" stroke-width="1" opacity="0.9098039215686274" d="M 317.5 27 L 315.5 30 L 317.5 27 Z " /><path fill="rgb(65,66,134)" stroke="rgb(65,66,134)" stroke-width="1" opacity="0.9098039215686274" d="M 188.5 31 L 191 31.5 Q 188.8 32.8 191.5 34 Q 194.1 34.8 193 31.5 L 195 32.5 L 198 40.5 L 197.5 42 L 199 42.5 L 196 43.5 L 195.5 46 L 195 42 Q 192 43.3 193 39.5 L 188.5 31 Z " /><path fill="rgb(65,66,134)" stroke="rgb(65,66,134)" stroke-width="1" opacity="0.9098039215686274" d="M 286.5 34 Q 288.8 33.3 288 35.5 L 291 37 L 290 39.5 L 291.5 40 L 293 39.5 L 293 41 Q 289.2 39.5 290 42.5 L 290.5 44 L 287.5 40 L 284 41.5 L 283.5 43 L 283 38 Q 280.3 36.9 281 39.5 L 281.5 41 L 280 38.5 L 286.5 34 Z " /><path fill="rgb(65,66,134)" stroke="rgb(65,66,134)" stroke-width="1" opacity="0.9098039215686274" d="M 52.5 36 L 53 39.5 L 52 39.5 L 52.5 36 Z " /><path fill="rgb(65,66,134)" stroke="rgb(65,66,134)" stroke-width="1" opacity="0.9098039215686274" d="M 77 38 L 79 38.5 L 77 39.5 L 77 38 Z " /><path fill="rgb(65,66,134)" stroke="rgb(65,66,134)" stroke-width="1" opacity="0.9098039215686274" d="M 332.5 38 L 340 38.5 L 336.5 40 L 332.5 39 L 332.5 38 Z " /><path fill="rgb(40,40,97)" stroke="rgb(40,40,97)" stroke-width="1" opacity="0.9294117647058824" d="M 280.5 37 L 279.5 39 L 280.5 37 Z " /><path fill="rgb(40,40,97)" stroke="rgb(40,40,97)" stroke-width="1" opacity="0.9294117647058824" d="M 292.5 37 L 294 39.5 L 293 39.5 L 292.5 37 Z " /><path fill="rgb(40,40,97)" stroke="rgb(40,40,97)" stroke-width="1" opacity="0.9294117647058824" d="M 62.5 41 L 63 45.5 L 62 45.5 L 62.5 41 Z " /><path fill="rgb(40,40,97)" stroke="rgb(40,40,97)" stroke-width="1" opacity="0.9294117647058824" d="M 143.5 41 L 145 51 L 150 49 L 150.5 54 L 153 53 L 153.5 47 L 154 62 L 144.5 62 L 143 60.5 L 143.5 41 Z " /><path fill="rgb(40,40,97)" stroke="rgb(40,40,97)" stroke-width="1" opacity="0.9294117647058824" d="M 175.5 41 L 176 49.5 L 178.5 53 Q 180 49.5 181.5 52 L 185.5 54 L 187 50.5 Q 184.5 49 186 43.5 L 187 43.5 L 188 51.5 L 202.5 69 L 217.5 69 L 218 67.5 Q 219.8 63.3 227.5 65 Q 232.1 66.9 231 74.5 Q 228.9 78.9 222.5 79 L 216.5 74 L 198.5 74 L 194 69.5 L 190 63 L 187.5 62 L 176 62 L 175.5 41 Z M 222 69 L 221 73 L 225 75 Q 228 75 227 71 Q 226 68 222 69 Z " /><path fill="rgb(40,40,97)" stroke="rgb(40,40,97)" stroke-width="1" opacity="0.9294117647058824" d="M 264.5 41 Q 264 49.5 267.5 54 L 268 51 L 270.5 51 L 274.5 54 L 279 54 Q 280.1 51.3 277.5 52 L 275 46.5 L 276 46.5 L 279.5 52 Q 282.2 54.8 288.5 54 Q 294.6 52.6 297 47.5 L 297.5 46 L 298 47.5 L 294 52.5 L 302 53 Q 300.5 49.3 303.5 50 Q 305.3 52.8 307 48.5 L 307.5 47 L 308 48.5 Q 305.4 55.9 299.5 60 Q 294.4 64.4 283.5 63 L 275 59 L 274.5 62 L 265.5 62 L 264 60.5 L 264.5 41 Z " /><path fill="rgb(40,40,97)" stroke="rgb(40,40,97)" stroke-width="1" opacity="0.9294117647058824" d="M 322.5 41 L 323 43.5 L 322 43.5 L 322.5 41 Z " /><path fill="rgb(40,40,97)" stroke="rgb(40,40,97)" stroke-width="1" opacity="0.9294117647058824" d="M 109.5 42 L 110 45.5 L 109 45.5 L 109.5 42 Z " /><path fill="rgb(40,40,97)" stroke="rgb(40,40,97)" stroke-width="1" opacity="0.9294117647058824" d="M 65.5 43 L 66 45 L 69 45.5 L 66.5 46 L 65.5 43 Z " /><path fill="rgb(40,40,97)" stroke="rgb(40,40,97)" stroke-width="1" opacity="0.9294117647058824" d="M 257.5 43 L 258 62 L 247 62 L 247 48.5 L 248 48.5 L 248.5 54 L 253.5 52 L 255.5 52 L 257 51.5 L 257.5 43 Z " /><path fill="rgb(40,40,97)" stroke="rgb(40,40,97)" stroke-width="1" opacity="0.9294117647058824" d="M 280.5 43 L 281 44.5 L 279 45.5 L 280.5 43 Z " /><path fill="rgb(40,40,97)" stroke="rgb(40,40,97)" stroke-width="1" opacity="0.9294117647058824" d="M 26.5 44 L 27 51 L 33.5 52 L 36 51 L 36.5 53 L 37.5 45 L 38 62 L 27.5 62 L 26 60.5 L 26.5 44 Z " /><path fill="rgb(40,40,97)" stroke="rgb(40,40,97)" stroke-width="1" opacity="0.9294117647058824" d="M 52.5 44 L 55 52 L 66 54 L 64.5 51 Q 61.5 51.9 63 47.5 L 64 47.5 L 67.5 52 L 75.5 54 L 83.5 50 L 86.5 50 L 91 54.5 L 91 56.5 Q 84.8 64.3 69.5 63 Q 59.6 60.9 55 53.5 L 52 47.5 L 52.5 44 Z M 83 51 Q 82 55 87 53 Q 88 49 83 51 Z " /><path fill="rgb(40,40,97)" stroke="rgb(40,40,97)" stroke-width="1" opacity="0.9294117647058824" d="M 94.5 44 L 93.5 46 L 72 45.5 L 93.5 45 L 94.5 44 Z " /><path fill="rgb(40,40,97)" stroke="rgb(40,40,97)" stroke-width="1" opacity="0.9294117647058824" d="M 285.5 44 L 286.5 46 L 285.5 44 Z " /><path fill="rgb(40,40,97)" stroke="rgb(40,40,97)" stroke-width="1" opacity="0.9294117647058824" d="M 293.5 44 L 294 45.5 L 287 48 Q 288 51 285 50 L 284 47.5 L 285.5 48 L 293 46 L 293.5 44 Z " /><path fill="rgb(40,40,97)" stroke="rgb(40,40,97)" stroke-width="1" opacity="0.9294117647058824" d="M 325.5 44 L 326.5 45 L 353.5 45 L 355 44.5 L 353.5 46 L 326.5 46 L 325.5 44 Z " /><path fill="rgb(40,40,97)" stroke="rgb(40,40,97)" stroke-width="1" opacity="0.9294117647058824" d="M 99.5 46 L 102.5 50 L 107 52.5 L 107.5 54 L 113 53 L 111 49.5 L 113.5 51 Q 116.4 54.6 124.5 53 L 131.5 48 L 138 52 L 138 54.5 L 132.5 60 Q 127.3 64.4 116.5 63 Q 107.9 61.1 103 55.5 L 99 47.5 L 99.5 46 Z M 130 49 L 129 52 L 131 52 L 132 51 L 135 54 L 135 51 L 130 49 Z M 136 54 L 134 56 L 136 56 L 136 54 Z " /><path fill="rgb(40,40,97)" stroke="rgb(40,40,97)" stroke-width="1" opacity="0.9294117647058824" d="M 204.5 47 Q 207.7 48.3 207.5 53 L 208 51 Q 211 49.8 210 53.5 L 211 53.5 L 210 49.5 L 212.5 51 L 216 52.5 L 214 53.5 L 217.5 54 L 219.5 54 Q 223.3 54.8 224 52.5 L 225.5 49 L 226 50.5 L 224 55 L 208.5 55 L 206 52.5 L 204.5 47 Z " /><path fill="rgb(40,40,97)" stroke="rgb(40,40,97)" stroke-width="1" opacity="0.9294117647058824" d="M 323.5 47 L 327.5 52 Q 330.4 54.6 336.5 54 L 344.5 50 L 343.5 52 L 342 52.5 L 347 53 L 346 50.5 L 352 55.5 Q 346 64.5 329.5 63 Q 319.3 60.3 314 52.5 L 313 49.5 L 315 50.5 Q 314.3 52.8 316.5 52 L 319.5 53 L 323 52 L 323.5 54 L 325.5 54 L 328 53.5 L 323 48.5 L 323.5 47 Z " /><path fill="rgb(40,40,97)" stroke="rgb(40,40,97)" stroke-width="1" opacity="0.9294117647058824" d="M 202.5 50 L 204 52.5 L 202 51.5 L 202.5 50 Z " /><path fill="rgb(40,40,97)" stroke="rgb(40,40,97)" stroke-width="1" opacity="0.9294117647058824" d="M 199.5 53 L 201.5 56 L 205 54 L 206.5 57 L 221.5 57 L 222 60.5 L 220.5 62 L 206.5 62 L 202 59.5 L 199 54.5 L 199.5 53 Z M 205 58 L 205 59 L 210 60 L 213 59 L 205 58 Z " /><path fill="rgb(51,51,118)" stroke="rgb(51,51,118)" stroke-width="1" opacity="0.984313725490196" d="M 53.5 34 L 54.5 36 L 56.5 36 Q 58.8 36.8 58 34.5 L 60 35.5 L 60.5 38 L 61.5 35 L 62.5 37 L 64 36.5 L 62 39.5 L 62 41.5 L 63 51 L 66 52.5 Q 66.8 54.8 64.5 54 L 55 52 Q 52.3 48 52 40.5 L 53.5 34 Z " /><path fill="rgb(51,51,118)" stroke="rgb(51,51,118)" stroke-width="1" opacity="0.984313725490196" d="M 153.5 34 Q 155.8 35.8 155 40.5 L 153 53 L 150.5 54 L 150 49 L 145 51 L 143 38.5 L 144.5 35 L 145 37 L 148.5 36 L 152 36.5 L 153.5 34 Z " /><path fill="rgb(51,51,118)" stroke="rgb(51,51,118)" stroke-width="1" opacity="0.984313725490196" d="M 223.5 34 L 224 37 Q 226.7 38.1 226 35.5 L 227.5 36 L 229.5 35 L 230 40.5 L 222.5 54 L 218.5 53 L 214.5 54 L 214.5 53 L 216 52.5 L 211.5 50 L 210.5 54 L 210 51 Q 207.3 49.9 208 52.5 L 207 52.5 L 207 49.5 L 200 39.5 L 203 38 L 203 36 L 209 36 L 210.5 39 L 211.5 37 L 214 46 L 218 43.5 L 218 40.5 L 221.5 35 L 223 35.5 L 223.5 34 Z " /><path fill="rgb(51,51,118)" stroke="rgb(51,51,118)" stroke-width="1" opacity="0.984313725490196" d="M 271.5 34 L 276 35.5 L 274 44.5 L 277.5 52 Q 280.1 51.3 279 54 L 274.5 54 Q 272.6 50.4 268 51 L 267.5 54 L 266 52.5 L 265 41.5 L 264 40.5 L 265 38 L 267.5 37 L 269 37.5 L 271.5 34 Z " /><path fill="rgb(51,51,118)" stroke="rgb(51,51,118)" stroke-width="1" opacity="0.984313725490196" d="M 27 35 L 32.5 36 L 35.5 35 Q 39.8 36.8 38 44.5 L 36.5 53 L 36 51 L 32.5 52 L 27 51 L 26 37.5 L 27 35 Z " /><path fill="rgb(51,51,118)" stroke="rgb(51,51,118)" stroke-width="1" opacity="0.984313725490196" d="M 300.5 35 L 301.5 38 Q 303 34.5 304.5 37 L 308 38 Q 310 47.7 304.5 51 L 302 50 L 302 53 L 294.5 53 L 296 50.5 L 299 43.5 L 298 37 Q 300.8 38 300.5 35 Z " /><path fill="rgb(51,51,118)" stroke="rgb(51,51,118)" stroke-width="1" opacity="0.984313725490196" d="M 318.5 35 L 323 37.5 L 323 39.5 L 322 43.5 L 323 48.5 L 328 53.5 L 324.5 55 L 323 52 L 317.5 53 L 315 52 L 312 45.5 L 312 39.5 L 313.5 37 L 316.5 38 Q 319.4 38.7 318.5 35 Z " /><path fill="rgb(51,51,118)" stroke="rgb(51,51,118)" stroke-width="1" opacity="0.984313725490196" d="M 86.5 36 L 89.5 37 L 92.5 36 L 92.5 38 Q 95.9 37.1 94 42.5 Q 96.3 43.8 93.5 45 L 72.5 45 L 69.5 46 L 66 45 L 66 39.5 L 67.5 39 Q 69 36.5 74.5 38 L 77 38.5 L 77.5 40 L 80.5 38 L 83.5 39 L 86.5 36 Z " /><path fill="rgb(51,51,118)" stroke="rgb(51,51,118)" stroke-width="1" opacity="0.984313725490196" d="M 105.5 36 L 107.5 36 L 110 37.5 L 110 39.5 L 109 45.5 L 113 53 L 107.5 54 L 105.5 51 L 100 47.5 L 99 41.5 L 100 39.5 Q 97.8 38.3 100.5 37 L 102.5 37 L 105.5 36 Z " /><path fill="rgb(51,51,118)" stroke="rgb(51,51,118)" stroke-width="1" opacity="0.984313725490196" d="M 180.5 36 Q 183.8 34.9 183 37.5 L 184.5 37 Q 186.8 36.3 186 38.5 L 187 42.5 Q 184.5 44 186 49.5 L 187 52.5 Q 185.3 55.8 183.5 52 L 180.5 51 Q 178.7 54.8 177 51.5 L 176 49.5 L 176 37 L 178.5 38 L 180.5 36 Z " /><path fill="rgb(51,51,118)" stroke="rgb(51,51,118)" stroke-width="1" opacity="0.984313725490196" d="M 249.5 36 L 251.5 36 Q 256.3 35.3 257 38.5 L 258 42.5 L 257 43.5 L 257 52 L 254.5 53 L 251.5 52 L 248.5 54 L 247 47.5 L 247 37 L 249.5 36 Z " /><path fill="rgb(51,51,118)" stroke="rgb(51,51,118)" stroke-width="1" opacity="0.984313725490196" d="M 348.5 36 L 349.5 38 Q 350.6 35.3 354 36 L 355 43.5 L 353.5 45 L 326.5 45 L 325 41.5 L 326 38 L 328.5 39 L 331.5 38 L 336.5 40 L 340.5 38 L 341 40 Q 343.7 41.1 343 38.5 L 344 38.5 L 344.5 40 L 348 38 L 348.5 36 Z " /><path fill="rgb(51,51,118)" stroke="rgb(51,51,118)" stroke-width="1" opacity="0.984313725490196" d="M 291.5 37 L 292.5 39 L 291.5 37 Z " /><path fill="rgb(51,51,118)" stroke="rgb(51,51,118)" stroke-width="1" opacity="0.984313725490196" d="M 194.5 40 Q 197.3 41.3 195 42.5 L 194.5 44 L 194 42.5 L 194.5 40 Z " /><path fill="rgb(51,51,118)" stroke="rgb(51,51,118)" stroke-width="1" opacity="0.984313725490196" d="M 282.5 40 L 283 43 Q 285.7 41.9 285 44.5 Q 287.3 45.8 284.5 47 Q 279.1 48.9 280 45.5 L 281.5 46 L 284 44.5 L 281 44 L 282.5 40 Z " /><path fill="rgb(51,51,118)" stroke="rgb(51,51,118)" stroke-width="1" opacity="0.984313725490196" d="M 290 41 Q 292.7 39.9 292 42.5 L 293 45.5 L 292 45.5 L 290.5 43 L 288.5 47 Q 284.7 44.7 290 42.5 L 290 41 Z " /><path fill="rgb(51,51,118)" stroke="rgb(51,51,118)" stroke-width="1" opacity="0.984313725490196" d="M 196.5 43 L 200 44.5 L 202 51.5 L 204 53.5 Q 202 58 200 54.5 L 196 46.5 L 196.5 43 Z " /><path fill="rgb(51,51,118)" stroke="rgb(51,51,118)" stroke-width="1" opacity="0.984313725490196" d="M 130 49 L 135 51 L 135.5 54 L 137 53.5 L 136 56 L 134 55.5 L 135 54.5 L 131.5 51 L 129.5 52 L 130 50.5 L 130 49 Z " /><path fill="rgb(51,51,118)" stroke="rgb(51,51,118)" stroke-width="1" opacity="0.984313725490196" d="M 345.5 50 L 347 53 L 342 52.5 L 345.5 50 Z " /><path fill="rgb(51,51,118)" stroke="rgb(51,51,118)" stroke-width="1" opacity="0.984313725490196" d="M 83 51 Q 88.2 49.3 87 53 Q 81.8 54.7 83 51 Z " /><path fill="rgb(51,51,118)" stroke="rgb(51,51,118)" stroke-width="1" opacity="0.984313725490196" d="M 204.5 58 L 213 58.5 L 209.5 60 L 204.5 59 L 204.5 58 Z " /><path fill="rgb(41,43,79)" stroke="rgb(41,43,79)" stroke-width="1" opacity="0.16470588235294117" d="M 164.5 1 L 167 1.5 L 164.5 2 L 164.5 1 Z " /><path fill="rgb(41,43,79)" stroke="rgb(41,43,79)" stroke-width="1" opacity="0.16470588235294117" d="M 250.5 2 L 255 2.5 L 250.5 3 L 250.5 2 Z " /><path fill="rgb(41,43,79)" stroke="rgb(41,43,79)" stroke-width="1" opacity="0.16470588235294117" d="M 160.5 3 L 160 4.5 L 158.5 8 L 158 6.5 L 160.5 3 Z " /><path fill="rgb(41,43,79)" stroke="rgb(41,43,79)" stroke-width="1" opacity="0.16470588235294117" d="M 170.5 3 L 173.5 6 L 199 6.5 L 172 7 L 170.5 3 Z " /><path fill="rgb(41,43,79)" stroke="rgb(41,43,79)" stroke-width="1" opacity="0.16470588235294117" d="M 248.5 3 L 246 6.5 L 245.5 8 L 245 6.5 L 248.5 3 Z " /><path fill="rgb(41,43,79)" stroke="rgb(41,43,79)" stroke-width="1" opacity="0.16470588235294117" d="M 256.5 3 L 258.5 6 L 256.5 3 Z " /><path fill="rgb(41,43,79)" stroke="rgb(41,43,79)" stroke-width="1" opacity="0.16470588235294117" d="M 142 6 L 144 6.5 L 143 7.5 L 142.5 55 L 142 6 Z " /><path fill="rgb(41,43,79)" stroke="rgb(41,43,79)" stroke-width="1" opacity="0.16470588235294117" d="M 7.5 7 L 8 18 L 20 18.5 L 8.5 19 L 7 17.5 L 7.5 7 Z " /><path fill="rgb(41,43,79)" stroke="rgb(41,43,79)" stroke-width="1" opacity="0.16470588235294117" d="M 55.5 7 Q 58.3 8.3 57 13.5 L 56 13.5 L 55.5 7 Z " /><path fill="rgb(41,43,79)" stroke="rgb(41,43,79)" stroke-width="1" opacity="0.16470588235294117" d="M 164.5 7 L 164 8.5 L 165 11.5 L 163 10.5 L 164.5 7 Z " /><path fill="rgb(41,43,79)" stroke="rgb(41,43,79)" stroke-width="1" opacity="0.16470588235294117" d="M 259.5 7 L 260 12.5 L 258.5 15 L 258 13.5 L 259.5 7 Z " /><path fill="rgb(41,43,79)" stroke="rgb(41,43,79)" stroke-width="1" opacity="0.16470588235294117" d="M 231.5 9 L 232 10.5 L 229.5 15 L 229 13.5 L 231.5 9 Z " /><path fill="rgb(41,43,79)" stroke="rgb(41,43,79)" stroke-width="1" opacity="0.16470588235294117" d="M 167.5 10 L 166.5 12 L 167.5 10 Z " /><path fill="rgb(41,43,79)" stroke="rgb(41,43,79)" stroke-width="1" opacity="0.16470588235294117" d="M 243.5 11 L 244 12.5 L 242 13.5 L 243.5 11 Z " /><path fill="rgb(41,43,79)" stroke="rgb(41,43,79)" stroke-width="1" opacity="0.16470588235294117" d="M 245.5 11 L 247 15 L 251 16.5 L 249.5 17 L 246 14.5 L 245.5 11 Z " /><path fill="rgb(41,43,79)" stroke="rgb(41,43,79)" stroke-width="1" opacity="0.16470588235294117" d="M 172.5 13 L 169.5 17 L 168 16.5 L 172.5 13 Z " /><path fill="rgb(41,43,79)" stroke="rgb(41,43,79)" stroke-width="1" opacity="0.16470588235294117" d="M 186.5 13 L 188.5 16 L 186.5 13 Z " /><path fill="rgb(41,43,79)" stroke="rgb(41,43,79)" stroke-width="1" opacity="0.16470588235294117" d="M 201.5 13 L 203 15.5 L 202 15.5 L 201.5 13 Z " /><path fill="rgb(41,43,79)" stroke="rgb(41,43,79)" stroke-width="1" opacity="0.16470588235294117" d="M 56.5 15 L 57 16.5 L 56 19 L 44 18.5 L 54.5 18 L 56 16.5 L 56.5 15 Z " /><path fill="rgb(41,43,79)" stroke="rgb(41,43,79)" stroke-width="1" opacity="0.16470588235294117" d="M 241.5 15 L 242 16.5 L 240.5 19 L 240 17.5 L 241.5 15 Z " /><path fill="rgb(41,43,79)" stroke="rgb(41,43,79)" stroke-width="1" opacity="0.16470588235294117" d="M 256.5 15 L 255.5 17 L 254 16.5 L 256.5 15 Z " /><path fill="rgb(41,43,79)" stroke="rgb(41,43,79)" stroke-width="1" opacity="0.16470588235294117" d="M 275.5 16 L 276 18.5 L 275 18.5 L 275.5 16 Z " /><path fill="rgb(41,43,79)" stroke="rgb(41,43,79)" stroke-width="1" opacity="0.16470588235294117" d="M 189.5 17 L 191 19.5 L 190 19.5 L 189.5 17 Z " /><path fill="rgb(41,43,79)" stroke="rgb(41,43,79)" stroke-width="1" opacity="0.16470588235294117" d="M 22.5 18 L 26 18.5 L 26 60.5 L 27.5 62 L 38 62 L 38 18.5 L 41.5 18 L 41.5 19 L 39 19.5 L 39 61.5 L 37.5 63 L 26.5 63 L 25 61.5 L 25 19 Q 21.7 19.8 22.5 18 Z " /><path fill="rgb(41,43,79)" stroke="rgb(41,43,79)" stroke-width="1" opacity="0.16470588235294117" d="M 203.5 18 L 205 20.5 L 204 20.5 L 203.5 18 Z " /><path fill="rgb(41,43,79)" stroke="rgb(41,43,79)" stroke-width="1" opacity="0.16470588235294117" d="M 227.5 18 L 228 19.5 L 225.5 24 L 225 22.5 L 227.5 18 Z " /><path fill="rgb(41,43,79)" stroke="rgb(41,43,79)" stroke-width="1" opacity="0.16470588235294117" d="M 79.5 20 L 83 21.5 L 81.5 21 Q 78.5 21.5 79.5 20 Z " /><path fill="rgb(41,43,79)" stroke="rgb(41,43,79)" stroke-width="1" opacity="0.16470588235294117" d="M 112.5 20 L 115 20.5 L 111.5 22 L 112.5 20 Z " /><path fill="rgb(41,43,79)" stroke="rgb(41,43,79)" stroke-width="1" opacity="0.16470588235294117" d="M 126.5 20 L 131 21.5 L 129.5 22 L 126.5 21 L 126.5 20 Z " /><path fill="rgb(41,43,79)" stroke="rgb(41,43,79)" stroke-width="1" opacity="0.16470588235294117" d="M 239.5 20 L 240 21.5 L 238 22.5 L 239.5 20 Z " /><path fill="rgb(41,43,79)" stroke="rgb(41,43,79)" stroke-width="1" opacity="0.16470588235294117" d="M 246 20 L 257.5 20 L 259 21.5 L 259 61.5 L 257.5 63 L 247.5 63 L 246 61.5 L 246 20 Z M 247 21 L 247 62 L 248 62 L 258 62 L 258 22 L 258 21 L 247 21 Z " /><path fill="rgb(41,43,79)" stroke="rgb(41,43,79)" stroke-width="1" opacity="0.16470588235294117" d="M 281.5 20 L 283 20.5 L 276.5 24 L 277.5 22 L 281.5 20 Z " /><path fill="rgb(41,43,79)" stroke="rgb(41,43,79)" stroke-width="1" opacity="0.16470588235294117" d="M 293.5 20 L 297 21.5 L 295.5 21 Q 292.5 21.5 293.5 20 Z " /><path fill="rgb(41,43,79)" stroke="rgb(41,43,79)" stroke-width="1" opacity="0.16470588235294117" d="M 339.5 20 L 344 21.5 L 342.5 22 L 339.5 21 L 339.5 20 Z " /><path fill="rgb(41,43,79)" stroke="rgb(41,43,79)" stroke-width="1" opacity="0.16470588235294117" d="M 158.5 21 L 160 21.5 L 154 24 L 154.5 22 L 156.5 22 L 158.5 21 Z " /><path fill="rgb(41,43,79)" stroke="rgb(41,43,79)" stroke-width="1" opacity="0.16470588235294117" d="M 61.5 22 L 63 22.5 L 55 29.5 Q 50 35 52 47.5 Q 54.6 54.9 60.5 59 L 69 62.5 L 66.5 63 L 57 58 L 57 56 Q 54.3 57.1 55 54.5 Q 48.8 49.2 51 35.5 Q 54.3 26.8 61.5 22 Z " /><path fill="rgb(41,43,79)" stroke="rgb(41,43,79)" stroke-width="1" opacity="0.16470588235294117" d="M 84.5 22 L 92 27.5 L 93 29.5 L 89 26.5 Q 89.8 24.3 87.5 25 L 84.5 22 Z " /><path fill="rgb(41,43,79)" stroke="rgb(41,43,79)" stroke-width="1" opacity="0.16470588235294117" d="M 108.5 22 L 110 22.5 L 104 26.5 L 100.5 32 L 100 30.5 L 105.5 24 L 108.5 22 Z " /><path fill="rgb(41,43,79)" stroke="rgb(41,43,79)" stroke-width="1" opacity="0.16470588235294117" d="M 132.5 22 L 139 27.5 Q 139.8 31.3 137.5 32 L 130.5 36 Q 128.1 29.4 117.5 31 L 112 35.5 L 110.5 40 L 110 37.5 L 115.5 31 L 124.5 30 L 131.5 35 L 138 29.5 Q 138.5 24.5 134.5 24 L 132.5 22 Z " /><path fill="rgb(41,43,79)" stroke="rgb(41,43,79)" stroke-width="1" opacity="0.16470588235294117" d="M 178.5 22 L 183.5 26 L 185 25.5 L 186 27.5 L 185.5 29 L 188 30.5 L 200 55.5 L 198 54.5 L 186.5 30 L 185.5 32 L 184 28.5 L 184.5 27 Q 179.3 25.3 178.5 22 Z " /><path fill="rgb(41,43,79)" stroke="rgb(41,43,79)" stroke-width="1" opacity="0.16470588235294117" d="M 184.5 22 L 189 22.5 L 183.5 24 L 184.5 22 Z " /><path fill="rgb(41,43,79)" stroke="rgb(41,43,79)" stroke-width="1" opacity="0.16470588235294117" d="M 205.5 22 L 209 29.5 L 208 29.5 L 205.5 22 Z " /><path fill="rgb(41,43,79)" stroke="rgb(41,43,79)" stroke-width="1" opacity="0.16470588235294117" d="M 298.5 22 L 303 24 L 309 34.5 L 309 47.5 L 308 47.5 L 308 34.5 Q 305.4 27.1 299.5 23 L 298.5 22 Z " /><path fill="rgb(41,43,79)" stroke="rgb(41,43,79)" stroke-width="1" opacity="0.16470588235294117" d="M 321.5 22 L 323 22.5 L 318 25 L 314.5 30 L 315 28.5 L 318.5 24 L 321.5 22 Z " /><path fill="rgb(41,43,79)" stroke="rgb(41,43,79)" stroke-width="1" opacity="0.16470588235294117" d="M 345.5 22 L 352 27.5 L 356 35.5 L 356 46 Q 353.9 47.6 348.5 47 L 348.5 46 Q 353.8 47.3 355 44.5 L 355 35.5 Q 352.9 28.1 347.5 24 L 345.5 22 Z " /><path fill="rgb(41,43,79)" stroke="rgb(41,43,79)" stroke-width="1" opacity="0.16470588235294117" d="M 237.5 24 L 238 25.5 L 225.5 52 L 226 50.5 L 237.5 24 Z " /><path fill="rgb(41,43,79)" stroke="rgb(41,43,79)" stroke-width="1" opacity="0.16470588235294117" d="M 191.5 25 L 192.5 27 L 193.5 25 L 198 34.5 L 196.5 37 L 195 34.5 L 197 34.5 L 195.5 31 Q 194.3 33.3 193 30.5 L 194 27.5 L 191 26.5 L 191.5 25 Z " /><path fill="rgb(41,43,79)" stroke="rgb(41,43,79)" stroke-width="1" opacity="0.16470588235294117" d="M 224.5 25 L 224 26.5 Q 221.4 37.9 215.5 46 L 214 42.5 L 215 42.5 L 215.5 44 L 224.5 25 Z " /><path fill="rgb(41,43,79)" stroke="rgb(41,43,79)" stroke-width="1" opacity="0.16470588235294117" d="M 69.5 30 L 72 30.5 Q 66.5 31 65 35.5 L 63.5 39 L 63 37.5 L 66.5 32 L 69.5 30 Z " /><path fill="rgb(41,43,79)" stroke="rgb(41,43,79)" stroke-width="1" opacity="0.16470588235294117" d="M 76.5 30 L 78.5 30 L 83 34.5 L 78.5 31 Q 75.5 31.5 76.5 30 Z " /><path fill="rgb(41,43,79)" stroke="rgb(41,43,79)" stroke-width="1" opacity="0.16470588235294117" d="M 162.5 30 Q 167.9 29.1 170 31.5 L 168.5 32 Q 167.3 29.7 162.5 31 L 158 33 Q 159.1 35.7 156.5 35 L 158.5 32 L 162.5 30 Z " /><path fill="rgb(41,43,79)" stroke="rgb(41,43,79)" stroke-width="1" opacity="0.16470588235294117" d="M 283.5 30 Q 293.2 28.8 296 34.5 Q 299.6 37.4 298 45.5 L 291.5 53 L 290 52.5 L 296 47.5 Q 298.3 44.3 297 37.5 L 294 33 Q 291.1 30.1 283.5 31 L 278 34.5 Q 274.4 37.4 276 45.5 L 281.5 52 L 289 53.5 L 283.5 54 L 277 49.5 Q 273.7 45.8 275 37.5 L 279.5 32 L 283.5 30 Z " /><path fill="rgb(41,43,79)" stroke="rgb(41,43,79)" stroke-width="1" opacity="0.16470588235294117" d="M 329.5 30 L 332 30.5 L 326 33 L 324.5 36 L 325 34.5 L 326.5 32 L 329.5 30 Z " /><path fill="rgb(41,43,79)" stroke="rgb(41,43,79)" stroke-width="1" opacity="0.16470588235294117" d="M 336.5 30 L 343 33.5 L 344 38 L 325 38 L 325 44.5 L 326.5 46 L 346 46.5 L 325 47.5 L 327.5 51 L 331 52.5 L 329.5 53 L 324 48.5 Q 321.5 45 323 37.5 L 325.5 37 L 342.5 37 L 343 35.5 L 342 33 L 336.5 31 L 336.5 30 Z " /><path fill="rgb(41,43,79)" stroke="rgb(41,43,79)" stroke-width="1" opacity="0.16470588235294117" d="M 93.5 31 L 95 34.5 L 94 34.5 L 93.5 31 Z " /><path fill="rgb(41,43,79)" stroke="rgb(41,43,79)" stroke-width="1" opacity="0.16470588235294117" d="M 313.5 31 L 314 32.5 L 312 35.5 L 312 47.5 L 314 51.5 L 313 51.5 Q 309 46.5 311 35.5 L 313.5 31 Z " /><path fill="rgb(41,43,79)" stroke="rgb(41,43,79)" stroke-width="1" opacity="0.16470588235294117" d="M 171.5 32 L 175 36.5 L 175 48.5 L 174 48.5 Q 175.9 35.9 171.5 32 Z " /><path fill="rgb(41,43,79)" stroke="rgb(41,43,79)" stroke-width="1" opacity="0.16470588235294117" d="M 99.5 33 L 100 34.5 L 99 35.5 L 99 47.5 L 104.5 57 Q 108.7 61.3 116 62.5 L 113.5 63 Q 105.9 61.2 102 55.5 L 98 47.5 L 98 35.5 L 99.5 33 Z " /><path fill="rgb(41,43,79)" stroke="rgb(41,43,79)" stroke-width="1" opacity="0.16470588235294117" d="M 186.5 33 L 188 35.5 L 188 49.5 L 201 67 L 203.5 68 L 216.5 68 Q 218.3 62.3 227.5 64 Q 233.1 65.9 232 74.5 L 229.5 78 L 222.5 80 L 221.5 78 L 225.5 79 L 231 74.5 Q 232.1 66.9 227.5 65 Q 219.7 63.3 218 67.5 L 217.5 69 L 202.5 69 L 187 49.5 L 187 35.5 L 186.5 33 Z " /><path fill="rgb(41,43,79)" stroke="rgb(41,43,79)" stroke-width="1" opacity="0.16470588235294117" d="M 210.5 33 L 214 40.5 L 213 40.5 L 210.5 33 Z " /><path fill="rgb(41,43,79)" stroke="rgb(41,43,79)" stroke-width="1" opacity="0.16470588235294117" d="M 285.5 33 L 289 34.5 Q 288.1 37.5 292.5 36 L 293.5 38 L 288 35.5 Q 288.8 33.3 286.5 34 L 283.5 37 L 279.5 38 L 280.5 36 Q 284.9 37.5 284 34.5 L 285.5 33 Z " /><path fill="rgb(41,43,79)" stroke="rgb(41,43,79)" stroke-width="1" opacity="0.16470588235294117" d="M 83.5 36 L 84 38 L 66.5 38 Q 65.5 38 66 42.5 L 65 44.5 L 66.5 46 L 93.5 46 L 95 44.5 L 95.5 36 L 96 45.5 L 94.5 47 L 65 47 L 67.5 51 L 71 52.5 L 69.5 53 L 64 48.5 L 63 44.5 L 65 42.5 Q 64 38 66.5 37 L 82.5 37 L 83.5 36 Z " /><path fill="rgb(41,43,79)" stroke="rgb(41,43,79)" stroke-width="1" opacity="0.16470588235294117" d="M 155.5 36 L 156 39.5 L 155 39.5 L 155.5 36 Z " /><path fill="rgb(41,43,79)" stroke="rgb(41,43,79)" stroke-width="1" opacity="0.16470588235294117" d="M 198.5 36 L 200 38.5 L 198.5 41 L 197 38.5 L 198.5 36 Z " /><path fill="rgb(41,43,79)" stroke="rgb(41,43,79)" stroke-width="1" opacity="0.16470588235294117" d="M 281 38 Q 284 37 283 40 Q 280 41 281 38 Z " /><path fill="rgb(41,43,79)" stroke="rgb(41,43,79)" stroke-width="1" opacity="0.16470588235294117" d="M 291.5 38 L 292 40 L 290 39.5 L 291.5 38 Z " /><path fill="rgb(41,43,79)" stroke="rgb(41,43,79)" stroke-width="1" opacity="0.16470588235294117" d="M 279.5 39 L 281 42.5 L 279 43.5 L 280 41.5 L 279.5 39 Z " /><path fill="rgb(41,43,79)" stroke="rgb(41,43,79)" stroke-width="1" opacity="0.16470588235294117" d="M 200.5 40 L 206 51.5 L 205 53.5 Q 206.8 51.9 208.5 55 L 223.5 55 L 224 53.5 L 225 53.5 Q 222.2 55.2 223 60.5 L 220.5 63 L 207 62.5 L 220.5 62 L 222 60.5 L 221.5 57 L 206.5 57 L 199 42.5 L 200.5 40 Z " /><path fill="rgb(41,43,79)" stroke="rgb(41,43,79)" stroke-width="1" opacity="0.16470588235294117" d="M 285.5 40 L 289 41.5 L 287.5 45 L 284 42.5 L 285.5 40 Z M 285 41 L 285 43 L 288 44 Q 290 40 285 41 Z " /><path fill="rgb(41,43,79)" stroke="rgb(41,43,79)" stroke-width="1" opacity="0.16470588235294117" d="M 293.5 40 L 294 43.5 L 292 42.5 L 293.5 40 Z " /><path fill="rgb(41,43,79)" stroke="rgb(41,43,79)" stroke-width="1" opacity="0.16470588235294117" d="M 154.5 41 L 155 63 L 143.5 63 L 143 61.5 L 142 59.5 L 143 59.5 L 144.5 62 L 154 62 L 154.5 41 Z " /><path fill="rgb(41,43,79)" stroke="rgb(41,43,79)" stroke-width="1" opacity="0.16470588235294117" d="M 110.5 43 L 113 50 L 119 52.5 L 116.5 53 L 111 48.5 L 110.5 43 Z " /><path fill="rgb(41,43,79)" stroke="rgb(41,43,79)" stroke-width="1" opacity="0.16470588235294117" d="M 281 44 Q 284 43 283 46 Q 280 47 281 44 Z " /><path fill="rgb(41,43,79)" stroke="rgb(41,43,79)" stroke-width="1" opacity="0.16470588235294117" d="M 290 44 Q 293 43 292 46 Q 289 47 290 44 Z " /><path fill="rgb(41,43,79)" stroke="rgb(41,43,79)" stroke-width="1" opacity="0.16470588235294117" d="M 279.5 46 L 284.5 48 L 285 46 L 288 46.5 L 285 48 L 284.5 50 L 284 48 Q 279.3 49 279.5 46 Z " /><path fill="rgb(41,43,79)" stroke="rgb(41,43,79)" stroke-width="1" opacity="0.16470588235294117" d="M 293.5 46 L 292.5 48 L 289 48 Q 290.1 50.7 287.5 50 L 289.5 47 L 293.5 46 Z " /><path fill="rgb(41,43,79)" stroke="rgb(41,43,79)" stroke-width="1" opacity="0.16470588235294117" d="M 130.5 47 L 139 52.5 L 139 55.5 L 134.5 60 L 129.5 62 L 129.5 61 Q 135.6 59.6 138 54.5 Q 139.1 51.2 136.5 52 L 130.5 48 Q 128.5 52.5 122.5 53 L 122.5 52 Q 128.4 51.4 130.5 47 Z " /><path fill="rgb(41,43,79)" stroke="rgb(41,43,79)" stroke-width="1" opacity="0.16470588235294117" d="M 84.5 48 L 92 53 L 93 55.5 Q 90 60.5 83.5 62 L 83.5 61 L 91 56.5 L 91 54.5 L 86.5 50 L 83.5 50 L 78.5 53 L 78.5 52 L 84.5 48 Z " /><path fill="rgb(41,43,79)" stroke="rgb(41,43,79)" stroke-width="1" opacity="0.16470588235294117" d="M 344.5 49 L 346.5 49 L 352 53 L 351.5 55 L 346.5 50 L 344.5 50 L 338.5 53 L 338.5 52 L 344.5 49 Z " /><path fill="rgb(41,43,79)" stroke="rgb(41,43,79)" stroke-width="1" opacity="0.16470588235294117" d="M 175.5 50 L 176 62 L 188 62.5 L 175 63 L 175.5 50 Z " /><path fill="rgb(41,43,79)" stroke="rgb(41,43,79)" stroke-width="1" opacity="0.16470588235294117" d="M 306.5 51 L 307 52.5 L 304 58 L 293.5 63 L 293.5 62 Q 301.6 60.6 305 54.5 L 306.5 51 Z " /><path fill="rgb(41,43,79)" stroke="rgb(41,43,79)" stroke-width="1" opacity="0.16470588235294117" d="M 73.5 53 L 76 53.5 L 73.5 54 L 73.5 53 Z " /><path fill="rgb(41,43,79)" stroke="rgb(41,43,79)" stroke-width="1" opacity="0.16470588235294117" d="M 314.5 53 Q 318.7 60.8 329 62.5 L 326.5 63 Q 319.2 60.8 315 55.5 L 314.5 53 Z " /><path fill="rgb(41,43,79)" stroke="rgb(41,43,79)" stroke-width="1" opacity="0.16470588235294117" d="M 332.5 53 L 337 53.5 L 332.5 54 L 332.5 53 Z " /><path fill="rgb(41,43,79)" stroke="rgb(41,43,79)" stroke-width="1" opacity="0.16470588235294117" d="M 351.5 56 L 352 58 L 346.5 61 L 347.5 59 L 351.5 56 Z " /><path fill="rgb(41,43,79)" stroke="rgb(41,43,79)" stroke-width="1" opacity="0.16470588235294117" d="M 200.5 57 L 203.5 61 L 206 61.5 L 203.5 62 L 200 58.5 L 200.5 57 Z " /><path fill="rgb(41,43,79)" stroke="rgb(41,43,79)" stroke-width="1" opacity="0.16470588235294117" d="M 275 59 L 280 61.5 L 278.5 62 L 276.5 61 L 274.5 63 L 264 63 L 264.5 61 L 265.5 62 L 275 62 L 275 59 Z " /><path fill="rgb(41,43,79)" stroke="rgb(41,43,79)" stroke-width="1" opacity="0.16470588235294117" d="M 79.5 62 L 82 62.5 L 79.5 63 L 79.5 62 Z " /><path fill="rgb(41,43,79)" stroke="rgb(41,43,79)" stroke-width="1" opacity="0.16470588235294117" d="M 339.5 62 L 342 62.5 L 339.5 63 L 339.5 62 Z " /><path fill="rgb(41,43,79)" stroke="rgb(41,43,79)" stroke-width="1" opacity="0.16470588235294117" d="M 72.5 63 L 77 63.5 L 72.5 64 L 72.5 63 Z " /><path fill="rgb(41,43,79)" stroke="rgb(41,43,79)" stroke-width="1" opacity="0.16470588235294117" d="M 118.5 63 L 124 63.5 L 118.5 64 L 118.5 63 Z " /><path fill="rgb(41,43,79)" stroke="rgb(41,43,79)" stroke-width="1" opacity="0.16470588235294117" d="M 189.5 63 L 198.5 74 L 216.5 74 L 220 77.5 L 216.5 75 L 197.5 75 L 196 73.5 L 189 64.5 L 189.5 63 Z " /><path fill="rgb(41,43,79)" stroke="rgb(41,43,79)" stroke-width="1" opacity="0.16470588235294117" d="M 285.5 63 L 292 63.5 L 285.5 64 L 285.5 63 Z " /><path fill="rgb(41,43,79)" stroke="rgb(41,43,79)" stroke-width="1" opacity="0.16470588235294117" d="M 331.5 63 L 337 63.5 L 331.5 64 L 331.5 63 Z " /><path fill="rgb(41,43,79)" stroke="rgb(41,43,79)" stroke-width="1" opacity="0.16470588235294117" d="M 222 69 Q 225.8 68 227 70.5 Q 227.5 74.5 224.5 75 L 221 72.5 L 222 69 Z M 224 70 L 222 72 L 224 74 L 226 73 Q 227 69 224 70 Z " /></svg>